<svg width="24" height="24" viewBox="0 0 24 24" fill="none" xmlns="http://www.w3.org/2000/svg">
<path d="M12 1.5C9.81275 1.50258 7.71583 2.3726 6.16921 3.91922C4.6226 5.46584 3.75257 7.56276 3.74999 9.75C3.74737 11.5374 4.33123 13.2763 5.41199 14.7C5.41199 14.7 5.63699 14.9963 5.67374 15.039L12 22.5L18.3292 15.0353C18.3622 14.9955 18.588 14.7 18.588 14.7L18.5887 14.6978C19.669 13.2747 20.2526 11.5366 20.25 9.75C20.2474 7.56276 19.3774 5.46584 17.8308 3.91922C16.2842 2.3726 14.1872 1.50258 12 1.5ZM12.75 13.5H11.25V12H12.75V13.5ZM12.75 10.5H11.25V9H12.75V10.5ZM15.75 13.5H14.25V7.5H9.74999V13.5H8.24999V7.5C8.25039 7.1023 8.40855 6.721 8.68977 6.43978C8.97099 6.15856 9.35229 6.0004 9.74999 6H14.25C14.6477 6.0004 15.029 6.15856 15.3102 6.43978C15.5914 6.721 15.7496 7.1023 15.75 7.5V13.5Z" fill="white"/>
</svg>
