<svg width="22" height="22" viewBox="0 0 22 22" fill="none" xmlns="http://www.w3.org/2000/svg">
<path fill-rule="evenodd" clip-rule="evenodd" d="M9.46393 18.4305C9.93877 18.9594 10.5484 19.25 11.1809 19.25H11.1818C11.817 19.25 12.4294 18.9594 12.9051 18.4296C13.1599 18.1482 13.5944 18.1253 13.8759 18.3792C14.1582 18.6331 14.1811 19.0685 13.9272 19.3499C13.1865 20.1722 12.2121 20.625 11.1818 20.625H11.1799C10.1524 20.6241 9.17977 20.1713 8.44185 19.349C8.18794 19.0676 8.21085 18.6322 8.49319 18.3792C8.77552 18.1243 9.21002 18.1473 9.46393 18.4305ZM11.2265 0.916672C15.3011 0.916672 18.0383 4.09017 18.0383 7.05376C18.0383 8.57817 18.426 9.22442 18.8376 9.91009C19.2446 10.5866 19.7057 11.3548 19.7057 12.8068C19.3858 16.5165 15.5128 16.819 11.2265 16.819C6.94017 16.819 3.06634 16.5165 2.75007 12.8654C2.74734 11.3548 3.20842 10.5866 3.61542 9.91009L3.7591 9.66823C4.11287 9.06021 4.41475 8.39883 4.41475 7.05376C4.41475 4.09017 7.15192 0.916672 11.2265 0.916672ZM11.2265 2.29167C8.02275 2.29167 5.78975 4.80151 5.78975 7.05376C5.78975 8.95951 5.26084 9.84042 4.79334 10.6178C4.41842 11.242 4.12234 11.7352 4.12234 12.8068C4.27542 14.5356 5.41667 15.444 11.2265 15.444C17.0043 15.444 18.1813 14.4953 18.3334 12.7472C18.3307 11.7352 18.0346 11.242 17.6597 10.6178C17.1922 9.84042 16.6633 8.95951 16.6633 7.05376C16.6633 4.80151 14.4303 2.29167 11.2265 2.29167Z" fill="white"/>
</svg>
